<svg id="eCwrha6jzBT1" xmlns="http://www.w3.org/2000/svg" xmlns:xlink="http://www.w3.org/1999/xlink" viewBox="0 0 300 300" shape-rendering="geometricPrecision" text-rendering="geometricPrecision"><defs><linearGradient id="eCwrha6jzBT2-fill" x1="0.946202" y1="1" x2="0.174077" y2="0" spreadMethod="pad" gradientUnits="objectBoundingBox" gradientTransform="translate(0 0)"><stop id="eCwrha6jzBT2-fill-0" offset="0%" stop-color="#093b8e"/><stop id="eCwrha6jzBT2-fill-1" offset="99%" stop-color="#c871f6"/></linearGradient><linearGradient id="eCwrha6jzBT4-fill" x1="0.146447" y1="0.146447" x2="0.853553" y2="0.853553" spreadMethod="pad" gradientUnits="objectBoundingBox" gradientTransform="translate(0 0)"><stop id="eCwrha6jzBT4-fill-0" offset="0%" stop-color="#c571f4"/><stop id="eCwrha6jzBT4-fill-1" offset="100%" stop-color="#4f4fb5"/></linearGradient></defs><path d="M-103.988209,-0.656077C-105.300364,-80.697475,-83.649821,-104.768424,0,-104.378317s104.644287,19.088303,104.378317,104.378317-16.792033,103.332132-104.378317,104.378317-102.676055-19.74438-103.988209-105.034394Z" transform="matrix(1.180665 0 0 1.180665 149.798762 149.982705)" fill="url(#eCwrha6jzBT2-fill)" stroke-width="0"/><path d="M179.999999,89.966247c11.501144-1.205085,21.236855,62.927043,39.99898,120.048353c0,0-15.398346-11.449509-26.923037-10.777296-13.075943.762695-23.075943-9.237305-23.075943-9.237305l-19.798762-50-20.201238,50c-10,9.487498-20,10-23.669243,9.487498-18.702759-2.61231-26.29346,10.534165-26.293459,10.527104c0-.00942,37.427435-112.433299,37.427435-112.433299s3-7.547551,5.535267-7.581303c11.29261,9.238766,20.500729,7.495485,27.201238,7.581303c12.279582.428049,25.428774-4.548682,29.798762-7.615055Z" transform="translate(.000001 0.000001)" fill="#fff" stroke="#fff" stroke-width="0.6"/><path d="M169.999996,60l10,10l13.075947,10C179.26607,78.816581,164.064646,71.104236,160,80c-4.938785,8.335057-1.882944,20.427065,0,30h-20c3.137988-8.302779,6.078435-18.51049-.000004-30-5.287842-8.769776-20.861845-1.623552-33.669239,0l11.133975-10l12.535264-10c5.448674,2.009067,15.421372,2.362716,19.886453,0c14.113848,3.133414,11.115967.889192,20.113547,0Z" transform="translate(.314789 100)" fill="url(#eCwrha6jzBT4-fill)" stroke-width="0.6"/></svg>